# xmcd
#
# Track frame offsets: 
#        150
#        11352
#        19165
#        34207
#        48935
#        68002
#        89050
#        99540
#        117437
#        141082
#        154125
#        183045
#        202759
#        214315
#        229870
#        242857
#
# Disc length: 3496 seconds
#
# Revision: 3
# Processed by: cddbd v1.5.2PL0 Copyright (c) Steve Scherf et al.
# Submitted via: ExactAudioCopyFreeDBPlugin 1.0
#
DISCID=d60da610
DTITLE=Various Artist - The Tomato Delta Blues Package
DYEAR=1993
DGENRE=Blues
TTITLE0=John Lee Hooker - No Shoes
TTITLE1=Lightnin' Hopkins - Lightnin's Discourse On Cadilac
TTITLE2=Lightnin' Hopkins - Big Car Blues
TTITLE3=Mississipi John Hurt - Talkin Casey
TTITLE4=Little Walter and Otis Rush - Walter's Blues
TTITLE5=Peg Leg Sam - Navaho Trail
TTITLE6=Arthur "Big Boy" Crudup - That's All Right Mamma
TTITLE7=Mississipi Fred McDowell - Some Day
TTITLE8=Johnny Shines - Troubles All I See
TTITLE9=Sonny Terry and Brownie McGhee - Walk On
TTITLE10=Louisiana Red - Walk All Over Georgia
TTITLE11=Brownie McGhee - Christina
TTITLE12=Big Joe Williams - Ride in My New Car Blues
TTITLE13=Howling Wolf - Commit a Crime
TTITLE14=Lightnin' Slim - That's Alright
TTITLE15=Leadbelly - John Hardy
EXTD=
EXTT0=John Lee Hooker
EXTT1=Loghtnin' Hopkins
EXTT2=Loghtnin' Hopkins
EXTT3=Mississippi Joh Hurt
EXTT4=Little Walter and Otis Rush
EXTT5=Peg Leg Sam
EXTT6=Arthur "Big Boy" Crudup
EXTT7=Mississippi Fred McDowell
EXTT8=Johnny Shine
EXTT9=Sonny Terry and Brownie McGhee
EXTT10=Luisiana Red
EXTT11=Brownie McGhee
EXTT12=Big Joe Williams
EXTT13=Howling Wolf
EXTT14=Lightnin' Slim
EXTT15=Leadbelly
PLAYORDER=
